<svg width="240" height="240" viewBox="0 0 240 240" fill="none" xmlns="http://www.w3.org/2000/svg">
<path d="M95.75 142.5C95.75 168 73.25 177.6 52.1 177.6C26.6 177.6 7.4 165.3 5 138.6L30.35 135.3C31.25 148.8 39.35 155.4 52.1 155.4C62.45 155.4 69.95 151.2 69.95 142.2C69.95 134.1 62.75 130.2 53.6 127.2L38.15 122.25C21.2 116.85 8.75 108.15 8.75 88.65C8.75 66.9 25.4 54.3 50.15 54.3C73.4 54.3 90.35 65.4 93.5 88.95L68.15 92.25C66.8 81.75 61.25 76.5 50.6 76.5C40.25 76.5 34.55 81 34.55 88.05C34.55 96 41.45 99.45 48.5 101.7L63.95 106.65C83.9 113.1 95.75 122.7 95.75 142.5ZM138.088 75.6H110.788V49.5H138.088V75.6ZM137.038 170.55L118.138 177.15C114.088 178.5 111.838 177.3 111.838 173.1V89.4H137.038V170.55ZM233.324 140.25C233.324 166.65 215.474 177.6 193.574 177.6C171.674 177.6 153.824 166.65 153.824 140.25V123.75C153.824 97.35 171.674 86.4 193.574 86.4C215.474 86.4 233.324 97.35 233.324 123.75V140.25ZM208.124 141V123C208.124 113.4 201.824 108.9 193.574 108.9C185.324 108.9 179.024 113.4 179.024 123V141C179.024 150.6 185.324 155.1 193.574 155.1C201.824 155.1 208.124 150.6 208.124 141Z" fill="black"/>
</svg>
